<svg width="190" height="26" xmlns="http://www.w3.org/2000/svg" fill="none">
 <defs>
  <filter height="200%" width="200%" y="-50%" x="-50%" id="svg_33_blur">
   <feGaussianBlur stdDeviation="0" in="SourceGraphic"/>
  </filter>
  <linearGradient id="svg_6" x1="0.56641" y1="0" x2="0.28906" y2="0.90859">
   <stop stop-color="#009BFF"/>
   <stop offset="0.35" stop-color="#0081FE"/>
   <stop offset="0.75" stop-color="#006AFD"/>
   <stop offset="1" stop-color="#0062FD"/>
  </linearGradient>
  <linearGradient y2="1" x2="0.41406" y1="0" x1="0.42969" id="svg_7">
   <stop offset="0" stop-color="#009BFF"/>
   <stop offset="0.72656" stop-color="#ff6400"/>
  </linearGradient>
  <linearGradient id="svg_15" x1="0" y1="0" x2="1" y2="0.99453" spreadMethod="pad">
   <stop stop-color="#b4b4e6" offset="0.49219"/>
   <stop stop-color="#4b4b19" offset="1"/>
  </linearGradient>
 </defs>
 <g>
  <title>background</title>
  <rect x="-1" y="-1" width="222" height="28" id="canvas_background" fill="none"/>
 </g>
 <g>
  <title>Layer 1</title>
  <rect stroke="null" fill="#bfbf00" stroke-width="null" stroke-opacity="null" x="9.86723" y="7.95865" width="9.46162" height="4.18281" id="svg_27" transform="rotate(-11.573166847229004 14.598035812377931,10.050054550170897) "/>
  <rect stroke="null" fill="#007fff" stroke-width="null" stroke-opacity="null" x="9.18228" y="14.97611" width="8.80338" height="3.92157" id="svg_24" transform="rotate(24.093852996826172 13.583974838256825,16.936899185180668) "/>
  <path d="m9.69386,18.00064l-5.30132,0l1.98374,-11.21482l5.30134,0l-1.98376,11.21482z" fill="url(#svg_6)" id="svg_17"/>
  <path d="m8.37049,23.19243l-4.34912,0c-0.06896,-0.00081 -0.13694,-0.01641 -0.19932,-0.0458c-0.06238,-0.0294 -0.11768,-0.072 -0.16214,-0.12471c-0.04447,-0.0527 -0.07705,-0.1144 -0.09553,-0.1808c-0.01848,-0.0664 -0.02242,-0.1361 -0.01155,-0.2042l0.84261,-4.7421l5.29,0l-0.86907,4.9122c-0.01763,0.1061 -0.07187,0.2028 -0.1533,0.2732c-0.08144,0.0704 -0.18495,0.1101 -0.29258,0.1122l0,0l0,0.00001z" fill="#009BFF" id="svg_18"/>
  <rect fill="#3f7f00" stroke="null" stroke-width="null" stroke-opacity="null" x="41.6827" y="17.81283" width="0" height="0.35651" id="svg_25"/>
  <text filter="url(#svg_33_blur)" stroke="null" transform="matrix(0.9588022232055664,0,0,1,1.3732909198188281,0) " fill="url(#svg_15)" stroke-width="0" stroke-opacity="null" x="30.50143" y="19" id="svg_33" font-size="18" font-family="'Trebuchet MS', Gadget, sans-serif" text-anchor="start" xml:space="preserve" font-weight="bold" opacity="0.9" font-style="normal">Vue3+TDesgin演示</text>
  <path d="m11.22845,6.87473l-4.3777,0c-0.06941,-0.0008 -0.13784,-0.0164 -0.20063,-0.0458c-0.06279,-0.0294 -0.11845,-0.072 -0.1632,-0.1247c-0.04476,-0.05269 -0.07756,-0.11439 -0.09616,-0.18079c-0.0186,-0.0664 -0.02257,-0.1361 -0.01163,-0.2042l0.84815,-4.7421l5.32476,0l-0.87478,4.9122c-0.01774,0.1061 -0.07234,0.2028 -0.1543,0.2732c-0.08198,0.0704 -0.18617,0.1101 -0.29451,0.1122l0,0l0,-0.00001z" fill="url(#svg_7)" id="svg_1" stroke="null" transform="rotate(-179.59471130371094 9.462565422058104,4.225939750671387) "/>
 </g>
</svg>
